<svg xmlns="http://www.w3.org/2000/svg" width="48" height="48" viewBox="0 0 48 48"><path d="M18.6 45.9C8.8 44.6 3.4 33.8 6.4 21.7 9.3 9.6 19.7 0.9 29.4 2.1c9.7 1.3 15.2 12.1 12.2 24.2C38.7 38.4 28.3 47.1 18.6 45.9z" fill="#1B509A"/><path d="M24.1 25c1.4-0.5 2.6-1.1 3.8-2 1.1-0.9 2.1-2 2.8-3.5 0.5-1 0.8-2.1 0.8-3.3 0-0.9-0.3-1.7-0.8-2.3 -0.5-0.6-1.3-0.9-2.4-0.9 -2.1 0-4.2 0.7-6.3 2.2 -2.1 1.5-3.8 3.5-5 6 -1.2 2.5-1.8 5-1.9 7.5 0 1.6 0.4 3 1.2 4.2 0.8 1.2 2.3 1.9 4.4 1.9 3.6-0.2 7.2-2.5 8.5-3.5 1.1-0.9 2.1-1.7 2.9-2.5 3.6-3.3 5.2-6.7 5.8-9.3 0.5-2.4 0.6-4.6 0.2-6.8 -0.4-2.1-1.4-3.8-3-5 -1.5-1.2-3.5-1.8-5.9-1.8C26.1 5.9 23.2 6.7 20.4 8.3c-2.8 1.6-5.2 3.9-7.3 6.9 -2 3-3.4 6.2-4.2 9.7 -1.1 5.1-0.7 9.3 1.3 12.6 2 3.3 5.1 5 9.3 5 3.3 0 6.5-1 9.4-3.1 3-2.1 5.6-5 7.7-8.9l-1 0c-1.8 3.3-4.1 5.9-7 7.9 -2.9 2-5.9 3-8.9 2.9 -3.7 0-6.5-1.5-8.2-4.5 -1.7-3-2.1-6.7-1.1-11.4 0.8-3.4 2.1-6.5 4.1-9.4 2-2.9 4.2-5.2 6.8-6.7 2.5-1.5 5.2-2.3 7.9-2.3 3.1 0 5.4 1.2 6.8 3.6 1.4 2.4 1.8 5.4 0.9 9.1 -0.4 1.4-0.8 2.6-1.8 3.9 -1.9 2.7-4.8 5.3-7.3 6.7 -0.7 0.4-2.5 1.3-4.4 1.3 -0.9 0-1.7-0.3-2.2-1 -0.6-0.7-0.8-1.6-0.8-2.7 0-0.6 0.1-1.4 0.2-2.4C22 25.5 23.2 25.3 24.1 25zM23.9 16.3c0.8-1 1.5-1.5 2.1-1.5 0.3 0 0.6 0.1 0.7 0.4 0.2 0.3 0.3 0.6 0.3 1 0 1-0.2 2.1-0.7 3.2 -0.4 1.1-1 2.1-1.5 2.8 -0.6 0.7-1.2 1.3-1.8 1.6 -0.6 0.3-1.5 0.6-2.6 0.8C21.3 20.9 22.5 18.1 23.9 16.3z" fill="#FFF"/></svg>
